<svg xmlns="http://www.w3.org/2000/svg" xmlns:xlink="http://www.w3.org/1999/xlink" width="500" height="640" version="1.1" viewBox="0 0 500 640"><defs><polygon id="path-1" points="0 0 1440 0 1440 781 0 781"/><polygon id="path-3" points="0 0 1440 0 1440 781 0 781"/><polygon id="path-5" points="0 0 1440 0 1440 781 0 781"/><polygon id="path-7" points="0 0 1440 0 1440 781 0 781"/></defs><g id="Page-1" fill="none" fill-rule="evenodd" stroke="none" stroke-width="1"><g id="hero-background"><g id="Clipped"><mask id="mask-2" fill="#fff"><use xlink:href="#path-1"/></mask><polygon id="Path" fill="#6B78B7" fill-rule="nonzero" points="310 50 450 50 -50 550 -50 410" mask="url(#mask-2)"/></g><g id="Clipped"><mask id="mask-4" fill="#fff"><use xlink:href="#path-3"/></mask><polygon id="Path" fill="#7689E4" fill-rule="nonzero" points="220 0 360 0 0 360 0 220" mask="url(#mask-4)"/></g><g id="Clipped"><mask id="mask-6" fill="#fff"><use xlink:href="#path-5"/></mask><polygon id="Path" fill="#555D85" fill-rule="nonzero" points="360 140 500 140 -140 780 -140 640" mask="url(#mask-6)"/></g><g id="Clipped"><mask id="mask-8" fill="#fff"><use xlink:href="#path-7"/></mask><polygon id="Path" fill="#8196FF" fill-rule="nonzero" points="220 0 0 220 0 0" mask="url(#mask-8)"/></g></g></g></svg>